@startuml Inheritance
title Vehicle

class Vehicle {
    #manufacture:String
    #year:int
    #color:String
    --
    +getManufacturer()
    +getYear()
    +getColor()
    --
    +setManufacturer()
    +setYear()
    +setColor()
    --
    +Vehicle()
    +Vehicle(manufacturer, year, color)
    --
    +start()
    +stop()
    +drive()
    +toString()
}

class Car {
    +openSunroof()
}

class Truck {
    +transport()
}

class Bus {
    +scheduling
}

class SchoolBus {
    +getFare() 
}

Bus -u-|> Vehicle : <<extends>>
Truck -u-|> Vehicle : <<extends>>
Car -u-|> Vehicle : <<extends>>
SchoolBus -u-|> Bus : <<extends>>

hide empty members
@enduml